<svg width="19" height="22" viewBox="0 0 19 22" fill="none" xmlns="http://www.w3.org/2000/svg">
<path d="M9.16307 11.492C4.11065 11.492 0 15.6029 0 20.6561C0 20.8707 0.173846 21.0448 0.388628 21.0448H17.9375C18.152 21.0448 18.3261 20.8707 18.3261 20.6561C18.3261 15.6029 14.2158 11.492 9.16307 11.492ZM0.786065 20.2675C0.989706 15.8226 4.66924 12.2693 9.16307 12.2693C13.6569 12.2693 17.3367 15.8226 17.5401 20.2675H0.786065Z" fill="white"/>
<path d="M9.01062 0C6.10161 0 3.73486 2.36675 3.73486 5.27576C3.73486 8.18477 6.10161 10.5515 9.01062 10.5515C11.9199 10.5515 14.2864 8.18477 14.2864 5.27576C14.2864 2.36675 11.9196 0 9.01062 0ZM9.01062 9.77426C6.53014 9.77426 4.51212 7.75624 4.51212 5.27576C4.51212 2.79527 6.53014 0.777256 9.01062 0.777256C11.4911 0.777256 13.5091 2.79527 13.5091 5.27576C13.5091 7.75624 11.4911 9.77426 9.01062 9.77426Z" fill="white"/>
</svg>
