<svg width="16" height="25" viewBox="0 0 16 25" fill="none" xmlns="http://www.w3.org/2000/svg">
<path d="M15.2451 6.50823L12.3356 6.47584V4.56923C12.3356 2.04962 10.2854 0 7.76583 0C5.24648 0 3.19686 2.04988 3.19686 4.56923V6.37376L0.392774 6.34241C0.286549 6.34474 0.188874 6.38179 0.115293 6.45485C0.0414541 6.52792 0 6.62741 0 6.73104V24.0426C0 24.2574 0.173846 24.4312 0.388628 24.4312H15.2412C15.456 24.4312 15.6299 24.2574 15.6299 24.0426V6.89711C15.6296 6.68415 15.4581 6.51082 15.2451 6.50823ZM3.97411 4.56923C3.97411 2.47841 5.67501 0.777256 7.76583 0.777256C9.85691 0.777256 11.5583 2.47841 11.5583 4.56923V6.46703L3.97411 6.38231V4.56923ZM14.8523 23.654H0.776998V7.12407L3.19686 7.15102V8.31509C2.66081 8.49049 2.26959 8.98949 2.26959 9.58357C2.26959 10.3227 2.87093 10.9238 3.60984 10.9238C4.34875 10.9238 4.95009 10.3225 4.95009 9.58357C4.95009 8.97161 4.53529 8.45966 3.97385 8.2998V7.15983L11.5581 7.24455V8.30757C11.0093 8.47546 10.6064 8.98068 10.6064 9.58357C10.6064 10.3227 11.2078 10.9238 11.9467 10.9238C12.6856 10.9238 13.2869 10.3225 13.2869 9.58357C13.2869 8.98068 12.8841 8.4752 12.3353 8.30757V7.25336L14.8521 7.2816V23.654H14.8523ZM3.60984 9.02058C3.92022 9.02058 4.17283 9.27319 4.17283 9.58357C4.17283 9.89395 3.92022 10.1466 3.60984 10.1466C3.29945 10.1466 3.04685 9.89395 3.04685 9.58357C3.04685 9.27319 3.29945 9.02058 3.60984 9.02058ZM11.947 9.02058C12.2573 9.02058 12.5099 9.27319 12.5099 9.58357C12.5099 9.89395 12.2573 10.1466 11.947 10.1466C11.6366 10.1466 11.384 9.89395 11.384 9.58357C11.384 9.27319 11.6366 9.02058 11.947 9.02058Z" fill="white"/>
</svg>
