<svg width="14" height="13" viewBox="0 0 14 13" fill="none" xmlns="http://www.w3.org/2000/svg">
<path d="M0.5 6.5C0.5 7.78558 0.881218 9.04229 1.59545 10.1112C2.30968 11.1801 3.32484 12.0132 4.51256 12.5052C5.70028 12.9972 7.00721 13.1259 8.26809 12.8751C9.52896 12.6243 10.6872 12.0052 11.5962 11.0962C12.5052 10.1872 13.1243 9.02896 13.3751 7.76809C13.6259 6.50721 13.4972 5.20028 13.0052 4.01256C12.5132 2.82484 11.6801 1.80968 10.6112 1.09545C9.54229 0.381218 8.28558 0 7 0C5.27667 0.00187693 3.62446 0.687299 2.40588 1.90588C1.1873 3.12446 0.501877 4.77667 0.5 6.5ZM12.7909 6.5C12.7909 7.64533 12.4513 8.76495 11.815 9.71726C11.1786 10.6696 10.2742 11.4118 9.21608 11.8501C8.15793 12.2884 6.99357 12.4031 5.87025 12.1796C4.74692 11.9562 3.71508 11.4047 2.90521 10.5948C2.09534 9.78492 1.5438 8.75307 1.32036 7.62975C1.09692 6.50642 1.2116 5.34206 1.6499 4.28391C2.0882 3.22576 2.83043 2.32135 3.78274 1.68503C4.73505 1.04872 5.85467 0.709091 7 0.709091C8.53527 0.710967 10.0071 1.32168 11.0927 2.40728C12.1783 3.49288 12.789 4.96473 12.7909 6.5Z" fill="#1B82E4"/>
<path d="M7 2.49169V6.17527C7.00005 6.23951 7.01799 6.3023 7.05156 6.35569C7.08512 6.40909 7.13279 6.4507 7.18857 6.47528C7.24434 6.49986 7.3057 6.50629 7.36491 6.49378C7.42412 6.48126 7.47851 6.45035 7.52122 6.40495L10.168 3.5881C10.222 3.52649 10.2513 3.44499 10.25 3.36079C10.2486 3.27659 10.2165 3.19625 10.1606 3.1367C10.1046 3.07715 10.0291 3.04304 9.94999 3.04155C9.87087 3.04007 9.79429 3.07132 9.7364 3.12874L7.6108 5.39088V2.49169C7.6108 2.40549 7.57863 2.32282 7.52135 2.26187C7.46408 2.20091 7.3864 2.16667 7.3054 2.16667C7.2244 2.16667 7.14672 2.20091 7.08945 2.26187C7.03218 2.32282 7 2.40549 7 2.49169Z" fill="#1B82E4"/>
</svg>
